<svg width="100" height="90" viewBox="0 0 100 90" fill="none" xmlns="http://www.w3.org/2000/svg">
<path d="M51 90L58.105 83.5259L58.1671 83.4695C83.3673 60.5965 100 45.4998 100 26.9755C100 11.8692 88.142 0 73.05 0C64.524 0 51 10.2507 51 10.2507V90Z" fill="black"/>
<path d="M49 90L41.895 83.5259L41.8329 83.4695C16.6327 60.5965 0 45.4998 0 26.9755C0 11.8692 11.858 0 26.95 0C35.476 0 49 10.2507 49 10.2507V20V29.1111H46.7L42.1 20H37.5L42.1 29.1111H35.2L30.6 20C29.335 20 28.2525 20.4457 27.3524 21.3371C26.4508 22.2299 26 23.3028 26 24.5556V56.4444C26 57.6972 26.4508 58.7701 27.3524 59.6629C28.2525 60.5543 29.335 61 30.6 61H49V90Z" fill="black"/>
</svg>
