<svg width="598" height="90" viewBox="0 0 598 90" fill="none" xmlns="http://www.w3.org/2000/svg">
<path d="M51 90L58.105 83.5259L58.1671 83.4695C83.3673 60.5965 100 45.4998 100 26.9755C100 11.8692 88.142 0 73.05 0C64.524 0 51 10.2507 51 10.2507V90Z" fill="black"/>
<path d="M49 90L41.895 83.5259L41.8329 83.4695C16.6327 60.5965 0 45.4998 0 26.9755C0 11.8692 11.858 0 26.95 0C35.476 0 49 10.2507 49 10.2507V20V29.1111H46.7L42.1 20H37.5L42.1 29.1111H35.2L30.6 20C29.335 20 28.2525 20.4457 27.3524 21.3371C26.4508 22.2299 26 23.3028 26 24.5556V56.4444C26 57.6972 26.4508 58.7701 27.3524 59.6629C28.2525 60.5543 29.335 61 30.6 61H49V90Z" fill="black"/>
<path d="M115 15.9091H128.348L146.223 59.5161H146.929L164.804 15.9091H178.151V76.0891H167.685V34.7447H167.126L150.486 75.9128H142.666L126.025 34.6566H125.466V76.0891H115V15.9091Z" fill="black"/>
<path d="M209.257 76.9706C204.847 76.9706 201.025 76.0009 197.791 74.0615C194.557 72.1221 192.048 69.4089 190.264 65.9219C188.5 62.435 187.618 58.3603 187.618 53.6979C187.618 49.0355 188.5 44.951 190.264 41.4444C192.048 37.9379 194.557 35.2149 197.791 33.2755C201.025 31.3361 204.847 30.3664 209.257 30.3664C213.667 30.3664 217.489 31.3361 220.723 33.2755C223.957 35.2149 226.456 37.9379 228.22 41.4444C230.003 44.951 230.895 49.0355 230.895 53.6979C230.895 58.3603 230.003 62.435 228.22 65.9219C226.456 69.4089 223.957 72.1221 220.723 74.0615C217.489 76.0009 213.667 76.9706 209.257 76.9706ZM209.316 68.449C211.707 68.449 213.706 67.7928 215.313 66.4803C216.92 65.1481 218.116 63.3655 218.9 61.1322C219.704 58.899 220.105 56.4111 220.105 53.6685C220.105 50.9063 219.704 48.4086 218.9 46.1754C218.116 43.9226 216.92 42.1301 215.313 40.798C213.706 39.4659 211.707 38.7998 209.316 38.7998C206.866 38.7998 204.827 39.4659 203.2 40.798C201.593 42.1301 200.388 43.9226 199.584 46.1754C198.8 48.4086 198.408 50.9063 198.408 53.6685C198.408 56.4111 198.8 58.899 199.584 61.1322C200.388 63.3655 201.593 65.1481 203.2 66.4803C204.827 67.7928 206.866 68.449 209.316 68.449Z" fill="black"/>
<path d="M278.729 30.9541L262.647 76.0891H250.887L234.806 30.9541H246.154L256.532 64.4821H257.003L267.41 30.9541H278.729Z" fill="black"/>
<path d="M286.094 76.0891V30.9541H296.737V76.0891H286.094ZM291.445 24.5482C289.759 24.5482 288.309 23.9899 287.094 22.8733C285.878 21.7371 285.271 20.3756 285.271 18.7888C285.271 17.1824 285.878 15.8209 287.094 14.7043C288.309 13.5681 289.759 13 291.445 13C293.15 13 294.6 13.5681 295.796 14.7043C297.011 15.8209 297.619 17.1824 297.619 18.7888C297.619 20.3756 297.011 21.7371 295.796 22.8733C294.6 23.9899 293.15 24.5482 291.445 24.5482Z" fill="black"/>
<path d="M327.673 76.9706C323.146 76.9706 319.235 76.0303 315.943 74.1497C312.669 72.2495 310.151 69.5657 308.387 66.0983C306.623 62.6113 305.741 58.5072 305.741 53.786C305.741 49.1433 306.623 45.0686 308.387 41.562C310.17 38.0358 312.66 35.2932 315.854 33.3343C319.049 31.3557 322.803 30.3664 327.115 30.3664C329.898 30.3664 332.524 30.817 334.994 31.7181C337.483 32.5996 339.678 33.9709 341.579 35.832C343.5 37.693 345.009 40.0634 346.107 42.9431C347.205 45.8032 347.753 49.2118 347.753 53.169V56.4307H310.739V49.2608H337.552C337.532 47.2234 337.091 45.4114 336.229 43.8246C335.366 42.2182 334.161 40.9547 332.612 40.034C331.084 39.1133 329.3 38.6529 327.262 38.6529C325.086 38.6529 323.175 39.1818 321.529 40.2397C319.882 41.2779 318.598 42.6492 317.677 44.3535C316.776 46.0383 316.315 47.8895 316.295 49.9073V56.1662C316.295 58.7912 316.776 61.0441 317.736 62.9247C318.696 64.7857 320.039 66.2158 321.764 67.2149C323.489 68.1944 325.507 68.6841 327.82 68.6841C329.369 68.6841 330.77 68.4686 332.024 68.0377C333.279 67.5871 334.367 66.9308 335.288 66.0689C336.209 65.2069 336.905 64.1393 337.375 62.8659L347.312 63.9826C346.685 66.6076 345.49 68.8996 343.726 70.8586C341.981 72.798 339.747 74.3064 337.022 75.3838C334.298 76.4417 331.182 76.9706 327.673 76.9706Z" fill="black"/>
<path d="M357.228 15.9091H370.575L388.451 59.5161H389.156L407.031 15.9091H420.379V76.0891H409.913V34.7447H409.354L392.714 75.9128H384.893L368.253 34.6566H367.694V76.0891H357.228V15.9091Z" fill="black"/>
<path d="M444.781 77C441.92 77 439.342 76.4907 437.049 75.472C434.775 74.4337 432.972 72.9057 431.639 70.888C430.326 68.8702 429.67 66.3823 429.67 63.4242C429.67 60.8776 430.14 58.7717 431.081 57.1065C432.022 55.4414 433.305 54.1093 434.932 53.1102C436.559 52.1111 438.392 51.3569 440.43 50.8476C442.488 50.3186 444.615 49.9366 446.81 49.7016C449.456 49.4273 451.602 49.1824 453.248 48.9669C454.895 48.7319 456.09 48.3792 456.835 47.9091C457.6 47.4193 457.982 46.6651 457.982 45.6465V45.4702C457.982 43.2565 457.325 41.5424 456.012 40.3278C454.699 39.1133 452.807 38.506 450.338 38.506C447.731 38.506 445.663 39.0741 444.134 40.2103C442.625 41.3465 441.606 42.6884 441.077 44.236L431.14 42.8255C431.924 40.083 433.217 37.7909 435.02 35.9495C436.824 34.0885 439.029 32.6976 441.635 31.7769C444.242 30.8365 447.123 30.3664 450.279 30.3664C452.455 30.3664 454.62 30.6211 456.776 31.1304C458.932 31.6397 460.902 32.4821 462.686 33.6575C464.47 34.8133 465.9 36.3903 466.978 38.3884C468.076 40.3866 468.625 42.8843 468.625 45.8815V76.0891H458.393V69.8889H458.041C457.394 71.1426 456.482 72.318 455.306 73.4151C454.15 74.4925 452.69 75.3643 450.926 76.0303C449.181 76.6768 447.133 77 444.781 77ZM447.545 69.1837C449.681 69.1837 451.533 68.7625 453.101 67.9201C454.669 67.0582 455.875 65.922 456.718 64.5115C457.58 63.101 458.011 61.5632 458.011 59.8981V54.5794C457.678 54.8537 457.11 55.1084 456.306 55.3434C455.522 55.5785 454.64 55.7842 453.66 55.9605C452.68 56.1368 451.71 56.2935 450.749 56.4307C449.789 56.5678 448.956 56.6853 448.25 56.7833C446.663 56.9988 445.242 57.3514 443.987 57.8411C442.733 58.3309 441.743 59.0165 441.018 59.8981C440.293 60.76 439.93 61.8766 439.93 63.2479C439.93 65.2069 440.646 66.686 442.076 67.685C443.507 68.6841 445.33 69.1837 447.545 69.1837Z" fill="black"/>
<path d="M501.876 30.9541V39.1818H475.916V30.9541H501.876ZM482.325 20.1405H492.968V62.5133C492.968 63.9434 493.184 65.0404 493.615 65.8044C494.066 66.5488 494.654 67.0582 495.379 67.3324C496.104 67.6067 496.908 67.7438 497.79 67.7438C498.456 67.7438 499.064 67.6948 499.612 67.5969C500.181 67.4989 500.612 67.4108 500.906 67.3324L502.699 75.6483C502.131 75.8442 501.318 76.0597 500.259 76.2948C499.22 76.5298 497.946 76.667 496.437 76.7062C493.772 76.7845 491.371 76.3829 489.234 75.5014C487.098 74.6003 485.402 73.2094 484.148 71.3287C482.913 69.4481 482.306 67.0973 482.325 64.2764V20.1405Z" fill="black"/>
<path d="M529.99 76.9706C525.482 76.9706 521.611 75.9813 518.377 74.0028C515.163 72.0242 512.683 69.2914 510.939 65.8044C509.214 62.2978 508.352 58.2623 508.352 53.6979C508.352 49.1139 509.234 45.0686 510.998 41.562C512.762 38.0358 515.251 35.2932 518.465 33.3343C521.699 31.3557 525.521 30.3664 529.931 30.3664C533.597 30.3664 536.84 31.0422 539.663 32.3939C542.505 33.726 544.769 35.6165 546.454 38.0652C548.14 40.4943 549.1 43.3349 549.335 46.5868H539.163C538.751 44.4123 537.771 42.6002 536.223 41.1506C534.694 39.6814 532.646 38.9467 530.078 38.9467C527.903 38.9467 525.992 39.5344 524.345 40.7098C522.699 41.8656 521.415 43.5308 520.494 45.7052C519.592 47.8797 519.141 50.4852 519.141 53.5216C519.141 56.5972 519.592 59.2418 520.494 61.4555C521.396 63.6495 522.66 65.344 524.287 66.539C525.933 67.7144 527.864 68.3021 530.078 68.3021C531.646 68.3021 533.048 68.0083 534.283 67.4206C535.537 66.8133 536.586 65.9415 537.428 64.8053C538.271 63.6691 538.849 62.288 539.163 60.6621H549.335C549.081 63.8552 548.14 66.686 546.513 69.1543C544.886 71.603 542.671 73.5228 539.869 74.9137C537.066 76.285 533.773 76.9706 529.99 76.9706Z" fill="black"/>
<path d="M568.717 49.6428V76.0891H558.075V15.9091H568.482V38.6235H569.011C570.07 36.0768 571.706 34.0689 573.921 32.5996C576.156 31.1108 578.998 30.3664 582.447 30.3664C585.583 30.3664 588.318 31.0227 590.65 32.3352C592.982 33.6477 594.786 35.5675 596.06 38.0946C597.353 40.6217 598 43.7071 598 47.3508V76.0891H587.357V48.9963C587.357 45.9599 586.573 43.5993 585.005 41.9146C583.457 40.2103 581.281 39.3581 578.478 39.3581C576.597 39.3581 574.911 39.7695 573.421 40.5923C571.951 41.3955 570.795 42.5611 569.952 44.0891C569.129 45.6171 568.717 47.4683 568.717 49.6428Z" fill="black"/>
</svg>
