<svg width="624" height="159" viewBox="0 0 624 159" fill="none" xmlns="http://www.w3.org/2000/svg">
<path d="M0.453369 158.02V90.82H19.0774L45.9574 134.692H36.1654L62.2774 90.82H80.9014L81.0934 158.02H60.4534L60.2614 121.924H63.5254L45.6694 151.972H35.6854L17.0614 121.924H21.0934V158.02H0.453369Z" fill="white"/>
<path d="M119.119 158.98C113.167 158.98 107.887 157.828 103.279 155.524C98.7351 153.156 95.1511 149.924 92.5271 145.828C89.9031 141.732 88.5911 137.028 88.5911 131.716C88.5911 126.404 89.9031 121.7 92.5271 117.604C95.1511 113.508 98.7351 110.308 103.279 108.004C107.887 105.7 113.167 104.548 119.119 104.548C125.071 104.548 130.351 105.7 134.959 108.004C139.567 110.308 143.151 113.508 145.711 117.604C148.335 121.7 149.647 126.404 149.647 131.716C149.647 137.028 148.335 141.732 145.711 145.828C143.151 149.924 139.567 153.156 134.959 155.524C130.351 157.828 125.071 158.98 119.119 158.98ZM119.119 142.084C120.719 142.084 122.159 141.7 123.439 140.932C124.719 140.164 125.743 139.012 126.511 137.476C127.279 135.876 127.663 133.956 127.663 131.716C127.663 129.412 127.279 127.524 126.511 126.052C125.743 124.516 124.719 123.364 123.439 122.596C122.159 121.828 120.719 121.444 119.119 121.444C117.519 121.444 116.079 121.828 114.799 122.596C113.519 123.364 112.495 124.516 111.727 126.052C110.959 127.524 110.575 129.412 110.575 131.716C110.575 133.956 110.959 135.876 111.727 137.476C112.495 139.012 113.519 140.164 114.799 140.932C116.079 141.7 117.519 142.084 119.119 142.084Z" fill="white"/>
<path d="M169.911 158.02L148.791 105.508H171.063L187.095 148.132H175.863L192.951 105.508H213.495L192.375 158.02H169.911Z" fill="white"/>
<path d="M216.813 158.02V105.508H238.509V158.02H216.813ZM227.661 101.284C223.693 101.284 220.525 100.228 218.157 98.116C215.789 96.004 214.605 93.38 214.605 90.244C214.605 87.108 215.789 84.484 218.157 82.372C220.525 80.26 223.693 79.204 227.661 79.204C231.629 79.204 234.797 80.196 237.165 82.18C239.533 84.164 240.717 86.724 240.717 89.86C240.717 93.188 239.533 95.94 237.165 98.116C234.797 100.228 231.629 101.284 227.661 101.284Z" fill="white"/>
<path d="M277.117 158.98C270.717 158.98 265.117 157.796 260.317 155.428C255.581 153.06 251.901 149.828 249.277 145.732C246.653 141.572 245.341 136.9 245.341 131.716C245.341 126.404 246.621 121.7 249.181 117.604C251.805 113.508 255.357 110.308 259.837 108.004C264.381 105.7 269.469 104.548 275.101 104.548C280.285 104.548 285.053 105.572 289.405 107.62C293.821 109.668 297.341 112.708 299.965 116.74C302.653 120.772 303.997 125.764 303.997 131.716C303.997 132.484 303.965 133.348 303.901 134.308C303.837 135.204 303.773 136.036 303.709 136.804H263.293V126.34H292.189L284.029 129.124C284.029 127.076 283.645 125.348 282.877 123.94C282.173 122.468 281.181 121.348 279.901 120.58C278.621 119.748 277.085 119.332 275.293 119.332C273.501 119.332 271.933 119.748 270.589 120.58C269.309 121.348 268.317 122.468 267.613 123.94C266.909 125.348 266.557 127.076 266.557 129.124V132.388C266.557 134.628 267.005 136.548 267.901 138.148C268.797 139.748 270.077 140.964 271.741 141.796C273.405 142.564 275.421 142.948 277.789 142.948C280.221 142.948 282.205 142.628 283.741 141.988C285.341 141.348 287.005 140.388 288.733 139.108L300.061 150.532C297.501 153.284 294.333 155.396 290.557 156.868C286.845 158.276 282.365 158.98 277.117 158.98Z" fill="white"/>
<path d="M311.516 158.02V90.82H330.14L357.02 134.692H347.228L373.34 90.82H391.964L392.156 158.02H371.516L371.324 121.924H374.588L356.732 151.972H346.748L328.124 121.924H332.156V158.02H311.516Z" fill="white"/>
<path d="M434.214 158.02V148.708L432.678 146.212V128.548C432.678 125.988 431.878 124.036 430.278 122.692C428.742 121.348 426.214 120.676 422.694 120.676C420.326 120.676 417.926 121.06 415.494 121.828C413.062 122.532 410.982 123.524 409.254 124.804L402.342 110.5C405.414 108.58 409.094 107.108 413.382 106.084C417.67 105.06 421.862 104.548 425.958 104.548C434.982 104.548 441.958 106.564 446.886 110.596C451.878 114.628 454.374 121.028 454.374 129.796V158.02H434.214ZM419.334 158.98C415.046 158.98 411.462 158.244 408.582 156.772C405.702 155.3 403.526 153.348 402.054 150.916C400.582 148.42 399.846 145.668 399.846 142.66C399.846 139.268 400.71 136.388 402.438 134.02C404.166 131.652 406.79 129.86 410.31 128.644C413.894 127.428 418.406 126.82 423.846 126.82H434.79V137.284H427.302C424.998 137.284 423.302 137.668 422.214 138.436C421.19 139.14 420.678 140.228 420.678 141.7C420.678 142.916 421.126 143.94 422.022 144.772C422.982 145.54 424.262 145.924 425.862 145.924C427.334 145.924 428.678 145.54 429.894 144.772C431.174 143.94 432.102 142.66 432.678 140.932L435.462 147.364C434.63 151.268 432.87 154.18 430.182 156.1C427.494 158.02 423.878 158.98 419.334 158.98Z" fill="white"/>
<path d="M489.094 158.98C481.862 158.98 476.23 157.252 472.198 153.796C468.166 150.276 466.15 144.9 466.15 137.668V93.7H487.846V137.476C487.846 139.076 488.262 140.324 489.094 141.22C489.99 142.116 491.078 142.564 492.358 142.564C494.214 142.564 495.846 142.084 497.254 141.124L502.438 156.196C500.774 157.156 498.758 157.86 496.39 158.308C494.086 158.756 491.654 158.98 489.094 158.98ZM458.95 124.228V108.388H498.598V124.228H458.95Z" fill="white"/>
<path d="M534.724 158.98C528.708 158.98 523.364 157.828 518.692 155.524C514.02 153.22 510.34 150.02 507.652 145.924C505.028 141.764 503.716 137.028 503.716 131.716C503.716 126.404 505.028 121.7 507.652 117.604C510.34 113.508 514.02 110.308 518.692 108.004C523.364 105.7 528.708 104.548 534.724 104.548C541.124 104.548 546.596 105.924 551.14 108.676C555.684 111.428 558.82 115.236 560.548 120.1L543.748 128.356C542.66 125.924 541.316 124.164 539.716 123.076C538.18 121.988 536.484 121.444 534.628 121.444C533.028 121.444 531.524 121.828 530.116 122.596C528.772 123.364 527.684 124.516 526.852 126.052C526.084 127.524 525.7 129.412 525.7 131.716C525.7 134.02 526.084 135.94 526.852 137.476C527.684 139.012 528.772 140.164 530.116 140.932C531.524 141.7 533.028 142.084 534.628 142.084C536.484 142.084 538.18 141.54 539.716 140.452C541.316 139.364 542.66 137.604 543.748 135.172L560.548 143.428C558.82 148.292 555.684 152.1 551.14 154.852C546.596 157.604 541.124 158.98 534.724 158.98Z" fill="white"/>
<path d="M602.043 104.548C606.075 104.548 609.723 105.38 612.987 107.044C616.251 108.644 618.811 111.172 620.667 114.628C622.587 118.084 623.547 122.564 623.547 128.068V158.02H601.851V131.812C601.851 128.548 601.275 126.244 600.123 124.9C598.971 123.492 597.403 122.788 595.419 122.788C593.947 122.788 592.571 123.14 591.291 123.844C590.075 124.484 589.083 125.572 588.315 127.108C587.611 128.644 587.259 130.724 587.259 133.348V158.02H565.563V86.788H587.259V120.868L582.075 116.452C584.123 112.484 586.875 109.508 590.331 107.524C593.851 105.54 597.755 104.548 602.043 104.548Z" fill="white"/>
<path d="M582.627 7.2304L579.475 1.64172C579.201 1.09691 579.406 0.429081 579.92 0.14789C580.417 -0.115727 581.034 0.0424438 581.342 0.534529L584.563 6.22865C589.463 4.10214 594.979 4.10214 599.879 6.22865L603.1 0.534529C603.425 0.0248694 604.094 -0.133301 604.59 0.183039C605.07 0.499379 605.224 1.13206 604.967 1.64172L601.815 7.2304C607.126 10.3411 610.587 15.9473 611.066 22.2038H573.376C573.855 15.9473 577.316 10.3411 582.627 7.2304ZM600.787 17.3709C601.969 17.3709 602.929 16.3867 602.929 15.1741C602.929 13.9614 601.969 12.9772 600.787 12.9772C599.605 12.9772 598.646 13.9614 598.646 15.1741C598.646 16.3867 599.605 17.3709 600.787 17.3709ZM583.655 17.3709C584.837 17.3709 585.796 16.3867 585.796 15.1741C585.796 13.9614 584.837 12.9772 583.655 12.9772C582.473 12.9772 581.513 13.9614 581.513 15.1741C581.513 16.3867 582.473 17.3709 583.655 17.3709Z" fill="#181818"/>
<path d="M605.276 69.8265H592.529L603.974 44.7758C608.154 35.6975 601.438 25.4588 591.296 25.4588H555.661C550.11 25.4588 545.108 28.6669 542.846 33.6498L538.255 45.9362L551.412 49.5539L555.867 39.1104H571.011L558.471 67.0962C554.359 76.1745 561.143 86.891 571.148 86.891H605.276V121.02H618.981V83.4781C618.981 75.9697 612.814 69.8265 605.276 69.8265Z" fill="#181818"/>
<path d="M557.624 86.8846L561.902 91.2489C559.252 96.0073 552.711 99.8084 546.583 100.738V75.6221H554.864V69.9908H546.583V66.6683C549.785 65.4858 552.103 62.3886 552.103 58.7282C552.103 54.0824 548.377 50.2813 543.823 50.2813C539.269 50.2813 535.542 54.0824 535.542 58.7282C535.542 62.3886 537.861 65.4858 541.063 66.6683V69.9908H532.782V75.6221H541.063V100.738C534.935 99.8084 528.394 96.0073 525.744 91.2489L530.022 86.8846L518.981 78.4377V86.8846C518.981 97.8093 532.561 106.594 543.823 106.594C555.084 106.594 568.664 97.8093 568.664 86.8846V78.4377L557.624 86.8846ZM543.823 55.9126C545.341 55.9126 546.583 57.1796 546.583 58.7282C546.583 60.2768 545.341 61.5439 543.823 61.5439C542.305 61.5439 541.063 60.2768 541.063 58.7282C541.063 57.1796 542.305 55.9126 543.823 55.9126Z" fill="#181818"/>
</svg>
