<svg width="280" height="196" viewBox="0 0 280 196" xmlns="http://www.w3.org/2000/svg">
  <defs>
    <linearGradient id="gradient_active" x1="0.8" x2="0" y1="1.2" y2="0">
      <stop offset="-1.21%" stop-color="#858CF0"/>
      <stop offset="6.32%" stop-color="#75C3F0"/>
      <stop offset="11.63%" stop-color="#6EDBF0"/>
      <stop offset="18.09%" stop-color="#7BACF0"/>
      <stop offset="24.2%" stop-color="#848CF0"/>
      <stop offset="33.17%" stop-color="#C28DF8"/>
      <stop offset="39.59%" stop-color="#BAA5BE"/>
      <stop offset="46.58%" stop-color="#C6BAC9"/>
      <stop offset="54.28%" stop-color="#EBE7EC"/>
      <stop offset="60.78%" stop-color="#FFFFFF"/>
      <stop offset="66.37%" stop-color="#EAEAEA"/>
      <stop offset="75.3%" stop-color="#BDB8BA"/>
      <stop offset="79.29%" stop-color="#B9B2B5"/>
      <stop offset="90.2%" stop-color="#F2DFF2"/>
      <stop offset="95.95%" stop-color="#E6D6E4"/>
      <stop offset="101.78%" stop-color="#D0C4C8"/>
    </linearGradient>
  </defs>
  <path
    d="M33.9999,48L43.7965,20L254.145,20V58.4088L228.718,64.8185C232.096,65.9231,235.333,67.2516,238.388,68.8383C245.936,72.7587,252.592,78.3696,257.277,86.1516C261.955,93.921,264.145,102.985,264.145,113C264.145,141.151,243.645,158.855,220.136,168.611C196.451,178.439,166.001,182.124,136.571,181.18C107.08,180.234,76.994,174.587,53.8313,164.421C31.8923,154.792,10.2555,138.222,10.6468,112.785L38.6435,113.215C38.5349,120.278,44.8355,129.895,65.0841,138.782C84.1088,147.132,110.46,152.328,137.469,153.195C164.539,154.063,190.652,150.53,209.404,142.749C228.332,134.895,236.145,124.599,236.145,113C236.145,107.115,234.888,103.249,233.289,100.594C231.699,97.9512,229.249,95.6433,225.482,93.6867C217.406,89.4919,204.619,87.6023,187.541,88.0208C170.845,88.4299,151.987,90.9596,132.966,93.9771C127.173,94.8961,121.315,95.8697,115.515,96.8339C102.692,98.9651,90.1518,101.049,79.2093,102.395L74.0782,74.9247L180.887,48H33.9999Z"
    fill="url(#gradient_active)"
  />
</svg>
